#Comment line ignore any data following # character 
#Hierarchical Translation and Rotation (.htr) file 
[Header]	
#Header keywords are followed by a single value 
FileType HTR		#Single word string
DataType HTRS		#Translation followed by rotation and scale data
FileVersion 1		#integer
NumSegments 84		#integer
NumFrames 2		#integer
DataFrameRate 30		#integer, data frame rate in this file
EulerRotationOrder ZYX
CalibrationUnits mm
RotationUnits Degrees
GlobalAxisofGravity Y
BoneLengthAxis Y
ScaleFactor 1.00
[SegmentNames&Hierarchy]
#CHILD	PARENT
MASTER GLOBAL
root MASTER
chest root
L_mid_tent01 root
R_mid_tent01 root
spine01 root
Bip01_Neck chest
L_humerus chest
R_humerus chest
weapon_bone chest
Bip01_Head Bip01_Neck
eye_left_bone Bip01_Head
eye_right_bone Bip01_Head
L_forearm L_humerus
L_front_hand L_forearm
L_weapon_bone L_forearm
L_front_hand01_01 L_front_hand
L_front_hand02_01 L_front_hand
L_front_hand03_01 L_front_hand
L_front_hand01_02 L_front_hand01_01
L_front_hand02_02 L_front_hand02_01
L_front_hand03_02 L_front_hand03_01
R_forearm R_humerus
R_front_hand R_forearm
R_weapon_bone R_forearm
R_front_hand01_01 R_front_hand
R_front_hand02_01 R_front_hand
R_front_hand03_01 R_front_hand
R_front_hand01_02 R_front_hand01_01
R_front_hand02_02 R_front_hand02_01
R_front_hand03_02 R_front_hand03_01
null_rope01_connect L_mid_tent01
Rope1_Seg01 null_rope01_connect
Rope1_Seg02 Rope1_Seg01
Rope1_Seg03 Rope1_Seg02
Rope1_Seg04 Rope1_Seg03
Rope1_Seg05 Rope1_Seg04
Rope1_Seg06 Rope1_Seg05
Rope1_Seg07 Rope1_Seg06
Rope1_Seg09 Rope1_Seg07
L_mid_hand01 Rope1_Seg09
L_mid_hand02 Rope1_Seg09
L_mid_hand03 Rope1_Seg09
null_rope02_connect R_mid_tent01
Rope2_Seg01 null_rope02_connect
Rope2_Seg02 Rope2_Seg01
Rope2_Seg03 Rope2_Seg02
Rope2_Seg04 Rope2_Seg03
Rope2_Seg05 Rope2_Seg04
Rope2_Seg06 Rope2_Seg05
Rope2_Seg07 Rope2_Seg06
Rope2_Seg09 Rope2_Seg07
R_mid_hand01 Rope2_Seg09
R_mid_hand02 Rope2_Seg09
R_mid_hand03 Rope2_Seg09
spine02 spine01
spine03 spine02
pelvis spine03
null_rope03_connect pelvis
null_rope04_connect pelvis
Rope3_Seg01 null_rope03_connect
Rope3_Seg02 Rope3_Seg01
Rope3_Seg03 Rope3_Seg02
Rope3_Seg04 Rope3_Seg03
Rope3_Seg05 Rope3_Seg04
Rope3_Seg06 Rope3_Seg05
Rope3_Seg07 Rope3_Seg06
Rope3_Seg08 Rope3_Seg07
Rope3_Seg09 Rope3_Seg08
R_rear_hand01 Rope3_Seg09
R_rear_hand02 Rope3_Seg09
R_rear_hand03 Rope3_Seg09
Rope4_Seg01 null_rope04_connect
Rope4_Seg02 Rope4_Seg01
Rope4_Seg03 Rope4_Seg02
Rope4_Seg04 Rope4_Seg03
Rope4_Seg05 Rope4_Seg04
Rope4_Seg06 Rope4_Seg05
Rope4_Seg07 Rope4_Seg06
Rope4_Seg08 Rope4_Seg07
Rope4_Seg09 Rope4_Seg08
L_rear_hand01 Rope4_Seg09
L_rear_hand02 Rope4_Seg09
L_rear_hand03 Rope4_Seg09
[BasePosition]
#SegmentName Tx, Ty, Tz, Rx, Ry, Rz, BoneLength
MASTER 0.000000 0.000000 0.000000 -90.000000 0.000000 0.000000 10.000000 
root 0.000000 0.000000 0.000000 0.000000 0.000000 0.000000 10.000000 
chest 0.000000 0.000000 0.000000 0.000000 0.000000 0.000000 10.000000 
L_mid_tent01 0.000000 0.000000 0.000000 0.000000 0.000000 0.000000 10.000000 
R_mid_tent01 0.000000 0.000000 0.000000 0.000000 0.000000 0.000000 10.000000 
spine01 0.000000 0.000000 0.000000 0.000000 0.000000 0.000000 10.000000 
Bip01_Neck 0.000000 0.000000 0.000000 0.000000 0.000000 0.000000 10.000000 
L_humerus 0.000000 0.000000 0.000000 0.000000 0.000000 0.000000 10.000000 
R_humerus 0.000000 0.000000 0.000000 0.000000 0.000000 0.000000 10.000000 
weapon_bone 0.000000 0.000000 0.000000 0.000000 0.000000 0.000000 10.000000 
Bip01_Head 0.000000 0.000000 0.000000 0.000000 0.000000 0.000000 10.000000 
eye_left_bone 0.000000 0.000000 0.000000 0.000000 0.000000 0.000000 10.000000 
eye_right_bone 0.000000 0.000000 0.000000 0.000000 0.000000 0.000000 10.000000 
L_forearm 0.000000 0.000000 0.000000 0.000000 0.000000 0.000000 10.000000 
L_front_hand 0.000000 0.000000 0.000000 0.000000 0.000000 0.000000 10.000000 
L_weapon_bone 0.000000 0.000000 0.000000 0.000000 0.000000 0.000000 10.000000 
L_front_hand01_01 0.000000 0.000000 0.000000 0.000000 0.000000 0.000000 10.000000 
L_front_hand02_01 0.000000 0.000000 0.000000 0.000000 0.000000 0.000000 10.000000 
L_front_hand03_01 0.000000 0.000000 0.000000 0.000000 0.000000 0.000000 10.000000 
L_front_hand01_02 0.000000 0.000000 0.000000 0.000000 0.000000 0.000000 10.000000 
L_front_hand02_02 0.000000 0.000000 0.000000 0.000000 0.000000 0.000000 10.000000 
L_front_hand03_02 0.000000 0.000000 0.000000 0.000000 0.000000 0.000000 10.000000 
R_forearm 0.000000 0.000000 0.000000 0.000000 0.000000 0.000000 10.000000 
R_front_hand 0.000000 0.000000 0.000000 0.000000 0.000000 0.000000 10.000000 
R_weapon_bone 0.000000 0.000000 0.000000 0.000000 0.000000 0.000000 10.000000 
R_front_hand01_01 0.000000 0.000000 0.000000 0.000000 0.000000 0.000000 10.000000 
R_front_hand02_01 0.000000 0.000000 0.000000 0.000000 0.000000 0.000000 10.000000 
R_front_hand03_01 0.000000 0.000000 0.000000 0.000000 0.000000 0.000000 10.000000 
R_front_hand01_02 0.000000 0.000000 0.000000 0.000000 0.000000 0.000000 10.000000 
R_front_hand02_02 0.000000 0.000000 0.000000 0.000000 0.000000 0.000000 10.000000 
R_front_hand03_02 0.000000 0.000000 0.000000 0.000000 0.000000 0.000000 10.000000 
null_rope01_connect 0.000000 0.000000 0.000000 0.000000 0.000000 0.000000 10.000000 
Rope1_Seg01 0.000000 0.000000 0.000000 0.000000 0.000000 0.000000 10.000000 
Rope1_Seg02 0.000000 0.000000 0.000000 0.000000 0.000000 0.000000 10.000000 
Rope1_Seg03 0.000000 0.000000 0.000000 0.000000 0.000000 0.000000 10.000000 
Rope1_Seg04 0.000000 0.000000 0.000000 0.000000 0.000000 0.000000 10.000000 
Rope1_Seg05 0.000000 0.000000 0.000000 0.000000 0.000000 0.000000 10.000000 
Rope1_Seg06 0.000000 0.000000 0.000000 0.000000 0.000000 0.000000 10.000000 
Rope1_Seg07 0.000000 0.000000 0.000000 0.000000 0.000000 0.000000 10.000000 
Rope1_Seg09 0.000000 0.000000 0.000000 0.000000 0.000000 0.000000 10.000000 
L_mid_hand01 0.000000 0.000000 0.000000 0.000000 0.000000 0.000000 10.000000 
L_mid_hand02 0.000000 0.000000 0.000000 0.000000 0.000000 0.000000 10.000000 
L_mid_hand03 0.000000 0.000000 0.000000 0.000000 0.000000 0.000000 10.000000 
null_rope02_connect 0.000000 0.000000 0.000000 0.000000 0.000000 0.000000 10.000000 
Rope2_Seg01 0.000000 0.000000 0.000000 0.000000 0.000000 0.000000 10.000000 
Rope2_Seg02 0.000000 0.000000 0.000000 0.000000 0.000000 0.000000 10.000000 
Rope2_Seg03 0.000000 0.000000 0.000000 0.000000 0.000000 0.000000 10.000000 
Rope2_Seg04 0.000000 0.000000 0.000000 0.000000 0.000000 0.000000 10.000000 
Rope2_Seg05 0.000000 0.000000 0.000000 0.000000 0.000000 0.000000 10.000000 
Rope2_Seg06 0.000000 0.000000 0.000000 0.000000 0.000000 0.000000 10.000000 
Rope2_Seg07 0.000000 0.000000 0.000000 0.000000 0.000000 0.000000 10.000000 
Rope2_Seg09 0.000000 0.000000 0.000000 0.000000 0.000000 0.000000 10.000000 
R_mid_hand01 0.000000 0.000000 0.000000 0.000000 0.000000 0.000000 10.000000 
R_mid_hand02 0.000000 0.000000 0.000000 0.000000 0.000000 0.000000 10.000000 
R_mid_hand03 0.000000 0.000000 0.000000 0.000000 0.000000 0.000000 10.000000 
spine02 0.000000 0.000000 0.000000 0.000000 0.000000 0.000000 10.000000 
spine03 0.000000 0.000000 0.000000 0.000000 0.000000 0.000000 10.000000 
pelvis 0.000000 0.000000 0.000000 0.000000 0.000000 0.000000 10.000000 
null_rope03_connect 0.000000 0.000000 0.000000 0.000000 0.000000 0.000000 10.000000 
null_rope04_connect 0.000000 0.000000 0.000000 0.000000 0.000000 0.000000 10.000000 
Rope3_Seg01 0.000000 0.000000 0.000000 0.000000 0.000000 0.000000 10.000000 
Rope3_Seg02 0.000000 0.000000 0.000000 0.000000 0.000000 0.000000 10.000000 
Rope3_Seg03 0.000000 0.000000 0.000000 0.000000 0.000000 0.000000 10.000000 
Rope3_Seg04 0.000000 0.000000 0.000000 0.000000 0.000000 0.000000 10.000000 
Rope3_Seg05 0.000000 0.000000 0.000000 0.000000 0.000000 0.000000 10.000000 
Rope3_Seg06 0.000000 0.000000 0.000000 0.000000 0.000000 0.000000 10.000000 
Rope3_Seg07 0.000000 0.000000 0.000000 0.000000 0.000000 0.000000 10.000000 
Rope3_Seg08 0.000000 0.000000 0.000000 0.000000 0.000000 0.000000 10.000000 
Rope3_Seg09 0.000000 0.000000 0.000000 0.000000 0.000000 0.000000 10.000000 
R_rear_hand01 0.000000 0.000000 0.000000 0.000000 0.000000 0.000000 10.000000 
R_rear_hand02 0.000000 0.000000 0.000000 0.000000 0.000000 0.000000 10.000000 
R_rear_hand03 0.000000 0.000000 0.000000 0.000000 0.000000 0.000000 10.000000 
Rope4_Seg01 0.000000 0.000000 0.000000 0.000000 0.000000 0.000000 10.000000 
Rope4_Seg02 0.000000 0.000000 0.000000 0.000000 0.000000 0.000000 10.000000 
Rope4_Seg03 0.000000 0.000000 0.000000 0.000000 0.000000 0.000000 10.000000 
Rope4_Seg04 0.000000 0.000000 0.000000 0.000000 0.000000 0.000000 10.000000 
Rope4_Seg05 0.000000 0.000000 0.000000 0.000000 0.000000 0.000000 10.000000 
Rope4_Seg06 0.000000 0.000000 0.000000 0.000000 0.000000 0.000000 10.000000 
Rope4_Seg07 0.000000 0.000000 0.000000 0.000000 0.000000 0.000000 10.000000 
Rope4_Seg08 0.000000 0.000000 0.000000 0.000000 0.000000 0.000000 10.000000 
Rope4_Seg09 0.000000 0.000000 0.000000 0.000000 0.000000 0.000000 10.000000 
L_rear_hand01 0.000000 0.000000 0.000000 0.000000 0.000000 0.000000 10.000000 
L_rear_hand02 0.000000 0.000000 0.000000 0.000000 0.000000 0.000000 10.000000 
L_rear_hand03 0.000000 0.000000 0.000000 0.000000 0.000000 0.000000 10.000000 
#Beginning of Data. Separated by tabs
#Fr	Tx	Ty	Tz	Rx	Ry	Rz	SF
[MASTER]
36 -0.001258 8402.818359 0.000000 0.001660 0.001660 0.001660 8402.818359
37 -0.001299 8674.102539 0.000000 0.001660 0.001660 0.001660 8674.102539
[root]
36 -56.079407 114.987793 1481.440063 -96.581085 4.361177 -89.195534 1486.953979
37 -36.425407 62.407227 1464.835083 -97.325325 6.728288 -91.913826 1466.616211
[chest]
36 -84.512650 -34.090519 0.000000 -3.419261 0.625230 172.607086 91.129311
37 -84.512650 -34.090519 0.000000 -2.711572 0.270566 170.338654 91.129311
[L_mid_tent01]
36 27.299208 22.179310 -249.919052 -21.644764 21.148516 15.144046 252.382065
37 27.299202 22.179359 -249.919083 -21.171803 16.330051 14.019462 252.382095
[R_mid_tent01]
36 23.228794 24.509907 226.238495 -170.745590 -18.209759 34.318684 228.744751
37 23.228794 24.509907 226.238495 -167.921219 -18.606218 29.227930 228.744751
[spine01]
36 -0.361383 -0.195265 0.000000 0.037717 0.017094 21.792479 0.410763
37 -0.361383 -0.195265 0.000000 0.019841 0.009183 21.922165 0.410763
[Bip01_Neck]
36 165.484543 71.581718 0.000119 175.896118 1.177290 24.871183 180.302734
37 165.484543 71.581718 0.000119 175.896118 1.177290 24.871183 180.302734
[L_humerus]
36 -13.983130 -135.272980 -120.471481 -5.159506 68.815224 84.267395 181.680161
37 -13.983130 -135.272980 -120.471481 -5.240221 68.855263 84.179291 181.680161
[R_humerus]
36 -13.983309 -135.273102 125.287651 -5.548530 -84.872986 96.915642 184.909012
37 -13.983309 -135.273102 125.287651 22.407890 -77.157318 71.177498 184.909012
[weapon_bone]
36 235.964890 -300.705902 0.000000 0.000000 -89.951546 -128.212341 382.234833
37 235.964890 -300.705902 0.000000 0.000000 -89.951546 -128.212341 382.234833
[Bip01_Head]
36 251.300659 147.720337 -7.616825 -7.174276 7.284369 -61.075279 291.601318
37 253.831772 136.869965 -7.053204 -0.379101 6.247538 -62.067062 288.467865
[eye_left_bone]
36 -24.626970 125.451866 -64.772606 0.000000 -90.000000 -99.840431 143.318359
37 -24.626970 125.451866 -64.772606 0.000000 -90.000000 -99.840431 143.318359
[eye_right_bone]
36 -24.626970 125.451866 64.327362 0.000000 -89.960434 80.159386 143.117676
37 -24.626970 125.451866 64.327362 0.000000 -89.960434 80.159386 143.117676
[L_forearm]
36 322.776093 0.000000 -0.000119 0.000382 -0.002316 -108.751389 322.776093
37 322.776093 0.000000 -0.000119 0.000389 -0.002315 -109.085686 322.776093
[L_front_hand]
36 241.149185 -0.042021 -3.300071 -178.667953 -1.835447 -27.422350 241.171753
37 241.149185 -0.042021 -3.300071 -178.667953 -1.835447 -27.422350 241.171753
[L_weapon_bone]
36 156.183838 0.000000 0.000000 0.000014 0.000007 0.000001 156.183838
37 156.183838 0.000000 0.000000 0.000014 0.000007 0.000001 156.183838
[L_front_hand01_01]
36 86.095154 20.947098 -0.655860 -0.366594 -0.477154 75.385574 88.609184
37 86.095154 20.947098 -0.655860 -0.366594 -0.477154 75.385574 88.609184
[L_front_hand02_01]
36 86.935165 -11.437475 24.513514 154.403519 -59.888931 -61.371990 91.046425
37 86.935165 -11.437475 24.513514 154.403519 -59.888931 -61.371990 91.046425
[L_front_hand03_01]
36 86.637497 -14.123976 -20.424902 -153.913849 58.118122 -62.702866 90.126129
37 86.637497 -14.123976 -20.424902 -153.913849 58.118122 -62.702866 90.126129
[L_front_hand01_02]
36 71.020905 -0.000179 0.000030 0.000334 -0.002323 -106.379684 71.020905
37 71.020905 -0.000179 0.000030 0.000334 -0.002323 -106.379684 71.020905
[L_front_hand02_02]
36 71.020927 -0.000119 0.000060 0.000334 -0.002323 -106.379684 71.020927
37 71.020927 -0.000119 0.000060 0.000334 -0.002323 -106.379684 71.020927
[L_front_hand03_02]
36 71.020905 -0.000060 0.000060 0.000334 -0.002323 -106.379684 71.020905
37 71.020905 -0.000060 0.000060 0.000334 -0.002323 -106.379684 71.020905
[R_forearm]
36 322.776428 -0.000060 0.000030 0.203870 0.055864 -106.718826 322.776428
37 322.776428 -0.000060 0.000030 0.203873 0.055853 -106.712654 322.776428
[R_front_hand]
36 238.847015 -0.006795 2.210259 10.305950 5.202819 -46.370056 238.857239
37 238.847015 -0.006795 2.210259 3.841364 2.936049 -48.949219 238.857239
[R_weapon_bone]
36 155.664093 0.002503 -0.000030 0.003487 0.001180 -90.988930 155.664078
37 155.664093 0.002503 -0.000030 0.003487 0.001180 -90.988930 155.664078
[R_front_hand01_01]
36 87.624611 14.231146 22.918642 -154.633499 -59.950619 61.746044 91.683487
37 87.624611 14.231146 22.918642 -154.633499 -59.950619 61.746044 91.683487
[R_front_hand02_01]
36 89.356956 14.367283 -19.491137 154.602661 58.302849 63.744389 92.579636
37 89.356956 14.367283 -19.491137 154.602661 58.302849 63.744389 92.579636
[R_front_hand03_01]
36 87.286232 -22.307278 -0.143439 0.162155 -0.423168 -75.767921 90.091743
37 87.286232 -22.307278 -0.143439 0.162155 -0.423168 -75.767921 90.091743
[R_front_hand01_02]
36 71.020905 0.000060 0.000119 0.002323 -0.000334 106.381714 71.020905
37 71.020905 0.000060 0.000119 0.002323 -0.000334 106.381714 71.020905
[R_front_hand02_02]
36 71.020844 -0.000030 -0.000119 0.002323 -0.000334 106.381714 71.020836
37 71.020844 -0.000030 -0.000119 0.002323 -0.000334 106.381714 71.020836
[R_front_hand03_02]
36 71.020905 0.000000 0.000030 0.002323 -0.000334 106.381714 71.020905
37 71.020905 0.000000 0.000030 0.002323 -0.000334 106.381714 71.020905
[null_rope01_connect]
36 328.732483 0.000000 -0.000238 -162.591476 -54.373245 -129.937042 328.732483
37 328.732483 0.000000 -0.000238 -166.269958 -56.187923 -127.458611 328.732483
[Rope1_Seg01]
36 0.000000 0.000000 0.000000 107.378769 17.558895 -133.665268 0.000000
37 0.000000 0.000000 0.000000 114.544701 19.898514 -132.654678 0.000000
[Rope1_Seg02]
36 139.999863 -0.000179 0.000000 15.488977 -2.417518 -3.103134 139.999863
37 139.999863 -0.000179 0.000000 9.585262 0.217847 -2.873835 139.999863
[Rope1_Seg03]
36 139.999924 0.000060 -0.000060 22.453392 -5.535113 -3.480538 139.999924
37 139.999924 0.000060 -0.000060 18.657557 -0.419464 -3.601248 139.999924
[Rope1_Seg04]
36 139.999924 -0.000060 -0.000119 20.969870 -9.406546 -2.096157 139.999924
37 139.999924 -0.000060 -0.000119 33.974361 -2.197855 -4.301227 139.999924
[Rope1_Seg05]
36 139.999832 0.000119 -0.000060 23.367651 -1.215880 -9.776050 139.999832
37 139.999832 0.000119 -0.000060 3.758352 0.313295 -1.051975 139.999832
[Rope1_Seg06]
36 139.999954 0.000119 -0.000060 37.956314 -7.508117 -10.050430 139.999954
37 139.999954 0.000119 -0.000060 -8.921054 1.739554 -0.679787 139.999954
[Rope1_Seg07]
36 139.999985 0.000060 0.000000 13.289913 -6.155556 -1.459080 139.999985
37 139.999985 0.000060 0.000000 -1.660466 0.817156 -0.727402 139.999985
[Rope1_Seg09]
36 121.602913 0.000119 -0.000089 -89.793175 -1.359789 0.847147 121.602913
37 121.602913 0.000119 -0.000089 -89.793175 -1.359789 0.847147 121.602913
[L_mid_hand01]
36 103.859421 1.038730 8.195221 114.518158 -53.315018 -20.619703 104.187431
37 103.859421 1.038730 8.195221 114.518112 -53.315151 -20.619608 104.187431
[L_mid_hand02]
36 105.572853 -4.139662 -10.864139 -155.067673 38.166626 -52.448818 106.211075
37 105.572853 -4.139662 -10.864139 -155.067673 38.166626 -52.448818 106.211075
[L_mid_hand03]
36 104.641464 17.579376 -3.913581 -10.970130 15.317461 57.626949 106.179977
37 104.641464 17.579376 -3.913581 -10.970130 15.317461 57.626949 106.179977
[null_rope02_connect]
36 328.732849 0.000179 -0.000119 -142.215607 74.654388 -11.411907 328.732849
37 328.732849 0.000179 -0.000119 -154.351105 75.055122 -25.998446 328.732849
[Rope2_Seg01]
36 0.000090 0.000581 0.000080 116.941772 19.990738 -56.438286 0.000594
37 0.000093 0.000596 0.000078 133.875427 26.099583 -60.788990 0.000608
[Rope2_Seg02]
36 139.999741 -0.000060 -0.000119 27.383263 -0.191960 -6.146163 139.999756
37 139.999741 -0.000060 -0.000119 8.860290 -2.937455 -2.220839 139.999756
[Rope2_Seg03]
36 140.000107 0.000030 0.000000 17.203842 -1.522723 -3.485666 140.000107
37 140.000107 0.000030 0.000000 3.318161 -2.756704 -0.266274 140.000107
[Rope2_Seg04]
36 139.999802 0.000000 -0.000060 14.673944 -3.208395 -2.771242 139.999802
37 139.999802 0.000000 -0.000060 4.481970 -1.972489 -1.288360 139.999802
[Rope2_Seg05]
36 139.999985 -0.000060 0.000119 10.518771 -5.377699 -1.587581 139.999985
37 139.999985 -0.000060 0.000119 8.871886 -0.677581 -3.911003 139.999985
[Rope2_Seg06]
36 139.999893 -0.000030 -0.000119 4.519134 -3.709753 -0.412181 139.999893
37 139.999893 -0.000030 -0.000119 5.827419 -0.736608 -2.427915 139.999893
[Rope2_Seg07]
36 139.999893 0.000060 -0.000060 2.329467 -2.409941 -0.126505 139.999893
37 139.999893 0.000060 -0.000060 3.105095 -0.653599 -1.198548 139.999893
[Rope2_Seg09]
36 121.338966 0.000089 -0.000060 136.879395 0.546403 -1.506368 121.338966
37 121.338966 0.000089 -0.000060 136.879395 0.546403 -1.506368 121.338966
[R_mid_hand01]
36 104.680779 11.144459 -10.335981 -39.248650 29.171114 33.551922 105.778534
37 104.680779 11.144459 -10.335981 -39.248650 29.171114 33.551922 105.778534
[R_mid_hand02]
36 104.070427 2.443552 8.231699 71.586517 -38.253605 12.182658 104.424065
37 104.070427 2.443552 8.231699 71.586517 -38.253605 12.182658 104.424065
[R_mid_hand03]
36 106.028137 -11.221827 -5.996406 -168.987167 11.419018 -42.774643 106.788818
37 106.028137 -11.221827 -5.996406 -168.987167 11.419018 -42.774643 106.788818
[spine02]
36 129.756927 0.001550 0.000119 0.360042 -6.003795 -11.257607 129.756927
37 129.756927 0.001550 0.000119 0.362581 -4.994626 -12.110653 129.756927
[spine03]
36 78.608017 0.082622 -4.956392 1.813073 3.559611 16.354500 78.764160
37 78.610947 0.081976 -4.927689 1.811469 3.539394 16.394035 78.765282
[pelvis]
36 169.435242 0.051022 0.000000 -0.060032 -0.185473 13.445304 169.435257
37 169.435242 0.051022 0.000000 -0.060256 -0.182849 13.766620 169.435257
[null_rope03_connect]
36 -1.257226 -2.466202 137.391083 146.797409 -84.201202 -101.581726 137.418976
37 -1.257226 -2.466202 137.391083 -178.387985 -84.197517 -138.478485 137.418976
[null_rope04_connect]
36 -1.259640 -2.480268 -137.844437 146.797409 -84.201202 -101.581726 137.872513
37 -1.259640 -2.480268 -137.844437 -178.387985 -84.197517 -138.478485 137.872513
[Rope3_Seg01]
36 0.000004 -0.000579 0.000000 -129.417084 9.372610 -69.364067 0.000579
37 0.000002 -0.000595 0.000000 -128.102692 31.385057 -68.184013 0.000595
[Rope3_Seg02]
36 139.999924 -0.000119 0.000060 0.260395 -3.392620 6.652580 139.999924
37 139.999924 -0.000119 0.000060 0.154740 2.886108 6.266963 139.999924
[Rope3_Seg03]
36 139.999924 -0.000119 0.000119 -0.006232 -0.928825 5.246144 139.999924
37 139.999924 -0.000119 0.000119 0.501635 4.807136 5.296423 139.999924
[Rope3_Seg04]
36 139.999924 0.000119 0.000000 -1.521330 -6.739897 10.127414 139.999924
37 139.999924 0.000119 0.000000 0.556465 4.445123 4.592827 139.999924
[Rope3_Seg05]
36 139.999924 -0.000238 0.000060 -7.550683 -18.951347 19.723835 139.999924
37 139.999924 -0.000238 0.000060 -4.669881 -9.240820 6.559867 139.999924
[Rope3_Seg06]
36 139.999893 -0.000119 -0.000060 -3.735304 -11.075877 9.965211 139.999893
37 139.999893 -0.000119 -0.000060 -4.583433 -11.900477 5.248416 139.999893
[Rope3_Seg07]
36 139.999771 0.000060 -0.000119 -1.866093 -6.761449 5.499938 139.999771
37 139.999771 0.000060 -0.000119 -1.925944 -6.609173 3.170243 139.999771
[Rope3_Seg08]
36 139.999985 -0.000060 0.000000 -0.289698 -2.560779 1.967214 139.999985
37 139.999985 -0.000060 0.000000 -0.882252 -4.322762 1.910848 139.999985
[Rope3_Seg09]
36 90.185997 -0.000179 -0.000060 159.792526 -1.358243 -0.846482 90.185997
37 90.185997 -0.000179 -0.000060 159.792526 -1.358243 -0.846482 90.185997
[R_rear_hand01]
36 103.366196 -6.073594 -10.757982 -177.714203 24.565960 -73.910950 104.101845
37 103.366196 -6.073594 -10.757982 -177.714203 24.565960 -73.910950 104.101845
[R_rear_hand02]
36 100.509819 12.039542 -7.992327 -12.874829 36.868488 72.167213 101.543350
37 100.509819 12.039542 -7.992327 -12.874829 36.868488 72.167213 101.543350
[R_rear_hand03]
36 101.539970 5.215704 5.435467 71.484581 -71.816628 21.513813 101.819031
37 101.539970 5.215704 5.435467 71.484619 -71.816643 21.513803 101.819031
[Rope4_Seg01]
36 0.000059 -0.001149 0.000000 39.696220 49.930878 -119.128418 0.001150
37 0.000058 -0.001185 0.000000 41.295868 50.263371 -117.036644 0.001186
[Rope4_Seg02]
36 139.999985 0.000060 0.000119 -0.013169 -4.916062 1.383379 139.999985
37 139.999985 0.000060 0.000119 0.061559 -6.520081 -0.442723 139.999985
[Rope4_Seg03]
36 139.999924 0.000000 -0.000238 0.229402 -5.095761 0.778606 139.999924
37 139.999924 0.000000 -0.000238 0.289833 -5.667643 -0.319696 139.999924
[Rope4_Seg04]
36 139.999985 0.000000 0.000119 0.484429 -5.635756 0.453185 139.999985
37 139.999985 0.000000 0.000119 0.629828 -6.662740 -0.238120 139.999985
[Rope4_Seg05]
36 139.999802 -0.000060 -0.000119 -0.051040 4.088176 0.880738 139.999802
37 139.999802 -0.000060 -0.000119 -0.098975 1.420987 -0.138060 139.999802
[Rope4_Seg06]
36 139.999924 0.000000 0.000060 0.056410 9.021873 1.008264 139.999924
37 139.999924 0.000000 0.000060 -0.435724 6.949317 -0.104068 139.999924
[Rope4_Seg07]
36 139.999802 0.000000 0.000000 0.304311 5.308650 0.654455 139.999802
37 139.999802 0.000000 0.000000 -0.039773 5.255808 -0.039773 139.999802
[Rope4_Seg08]
36 139.999924 0.000000 0.000119 -1.320810 2.627465 0.362206 139.999924
37 139.999924 0.000000 0.000119 -1.463321 2.385414 -0.033754 139.999924
[Rope4_Seg09]
36 90.185791 0.000060 0.000060 -135.617828 2.228885 0.850567 90.185791
37 90.185791 0.000060 0.000060 -135.617828 2.228885 0.850567 90.185791
[L_rear_hand01]
36 101.696655 -8.392275 -7.654577 -19.915020 -33.950905 119.950104 102.329041
37 101.696655 -8.392275 -7.654577 -19.915020 -33.950905 119.950104 102.329041
[L_rear_hand02]
36 102.726799 -1.568258 5.773216 77.862221 61.878510 165.399200 102.900848
37 102.726799 -1.568258 5.773216 77.862221 61.878510 165.399200 102.900848
[L_rear_hand03]
36 104.552910 9.721220 -10.420293 -173.099182 -23.740307 -117.327896 105.519653
37 104.552910 9.721220 -10.420293 -173.099182 -23.740307 -117.327896 105.519653
